<svg xmlns="http://www.w3.org/2000/svg" width="19.376" height="25.189" viewBox="0 0 19.376 25.189">
  <g id="Icon_ionic-ios-business" data-name="Icon ionic-ios-business" transform="translate(-6.75 -3.094)">
    <path id="Tracé_53" data-name="Tracé 53" d="M10.09,5.274H23.411a1.093,1.093,0,0,0,1.09-1.09h0a1.093,1.093,0,0,0-1.09-1.09H10.09A1.093,1.093,0,0,0,9,4.184H9A1.093,1.093,0,0,0,10.09,5.274Z" transform="translate(-0.312 0)" fill="#cb8bdf"/>
    <path id="Tracé_54" data-name="Tracé 54" d="M25.036,7.031H7.84a1.093,1.093,0,0,0-.121,2.18V27.376a1.457,1.457,0,0,0,1.453,1.453H14.5a.486.486,0,0,0,.484-.484V25.923a.486.486,0,0,1,.484-.484h1.938a.486.486,0,0,1,.484.484v2.422a.486.486,0,0,0,.484.484H23.7a1.457,1.457,0,0,0,1.453-1.453V9.211a1.093,1.093,0,0,0-.121-2.18ZM12.563,23.016a.486.486,0,0,1-.484.484H11.11a.486.486,0,0,1-.484-.484v-.969a.486.486,0,0,1,.484-.484h.969a.486.486,0,0,1,.484.484Zm0-3.875a.486.486,0,0,1-.484.484H11.11a.486.486,0,0,1-.484-.484v-.969a.486.486,0,0,1,.484-.484h.969a.486.486,0,0,1,.484.484Zm0-3.875a.486.486,0,0,1-.484.484H11.11a.486.486,0,0,1-.484-.484V14.3a.486.486,0,0,1,.484-.484h.969a.486.486,0,0,1,.484.484Zm0-3.875a.486.486,0,0,1-.484.484H11.11a.486.486,0,0,1-.484-.484v-.969a.486.486,0,0,1,.484-.484h.969a.486.486,0,0,1,.484.484Zm4.844,11.626a.486.486,0,0,1-.484.484h-.969a.486.486,0,0,1-.484-.484v-.969a.486.486,0,0,1,.484-.484h.969a.486.486,0,0,1,.484.484Zm0-3.875a.486.486,0,0,1-.484.484h-.969a.486.486,0,0,1-.484-.484v-.969a.486.486,0,0,1,.484-.484h.969a.486.486,0,0,1,.484.484Zm0-3.875a.486.486,0,0,1-.484.484h-.969a.486.486,0,0,1-.484-.484V14.3a.486.486,0,0,1,.484-.484h.969a.486.486,0,0,1,.484.484Zm0-3.875a.486.486,0,0,1-.484.484h-.969a.486.486,0,0,1-.484-.484v-.969a.486.486,0,0,1,.484-.484h.969a.486.486,0,0,1,.484.484Zm4.844,11.626a.486.486,0,0,1-.484.484H20.8a.486.486,0,0,1-.484-.484v-.969a.486.486,0,0,1,.484-.484h.969a.486.486,0,0,1,.484.484Zm0-3.875a.486.486,0,0,1-.484.484H20.8a.486.486,0,0,1-.484-.484v-.969a.486.486,0,0,1,.484-.484h.969a.486.486,0,0,1,.484.484Zm0-3.875a.486.486,0,0,1-.484.484H20.8a.486.486,0,0,1-.484-.484V14.3a.486.486,0,0,1,.484-.484h.969a.486.486,0,0,1,.484.484Zm0-3.875a.486.486,0,0,1-.484.484H20.8a.486.486,0,0,1-.484-.484v-.969a.486.486,0,0,1,.484-.484h.969a.486.486,0,0,1,.484.484Z" transform="translate(0 -0.547)" fill="#cb8bdf"/>
  </g>
</svg>
