<svg xmlns="http://www.w3.org/2000/svg" width="22.04" height="25.189" viewBox="0 0 22.04 25.189">
  <path id="Icon_awesome-shopping-bag" data-name="Icon awesome-shopping-bag" d="M17.317,7.871V6.3a6.3,6.3,0,1,0-12.594,0V7.871H0V21.253a3.936,3.936,0,0,0,3.936,3.936H18.1a3.936,3.936,0,0,0,3.936-3.936V7.871ZM7.871,6.3a3.149,3.149,0,0,1,6.3,0V7.871h-6.3Zm7.871,5.9a1.181,1.181,0,1,1,1.181-1.181A1.181,1.181,0,0,1,15.743,12.2ZM6.3,12.2A1.181,1.181,0,1,1,7.478,11.02,1.181,1.181,0,0,1,6.3,12.2Z" fill="#c23335"/>
</svg>
