<svg xmlns="http://www.w3.org/2000/svg" width="32.468" height="25.248" viewBox="0 0 32.468 25.248">
  <path id="Icon_awesome-home" data-name="Icon awesome-home" d="M15.8,8.8,5.411,17.362V26.6a.9.9,0,0,0,.9.9l6.316-.016a.9.9,0,0,0,.9-.9V21.189a.9.9,0,0,1,.9-.9h3.607a.9.9,0,0,1,.9.9V26.58a.9.9,0,0,0,.9.9l6.314.017a.9.9,0,0,0,.9-.9V17.356L16.665,8.8A.687.687,0,0,0,15.8,8.8Zm16.415,5.817-4.712-3.884V2.93a.676.676,0,0,0-.676-.676H23.673A.676.676,0,0,0,23,2.93V7.022L17.95,2.871a2.705,2.705,0,0,0-3.438,0L.244,14.621a.676.676,0,0,0-.09.953l1.437,1.747a.676.676,0,0,0,.953.092L15.8,6.493a.687.687,0,0,1,.862,0l13.259,10.92a.676.676,0,0,0,.953-.09l1.437-1.747a.676.676,0,0,0-.1-.954Z" transform="translate(0.001 -2.254)" fill="#ffd676"/>
</svg>
