<svg xmlns="http://www.w3.org/2000/svg" width="28.827" height="25.624" viewBox="0 0 28.827 25.624">
  <path id="Icon_awesome-shopping-cart" data-name="Icon awesome-shopping-cart" d="M26.431,15.08,28.8,4.67A1.2,1.2,0,0,0,27.625,3.2H7.968L7.509.96A1.2,1.2,0,0,0,6.332,0H1.2A1.2,1.2,0,0,0,0,1.2V2A1.2,1.2,0,0,0,1.2,3.2H4.7L8.214,20.391a2.8,2.8,0,1,0,3.355.429H22.062a2.8,2.8,0,1,0,3.183-.521l.276-1.215a1.2,1.2,0,0,0-1.171-1.467H10.916l-.328-1.6H25.26A1.2,1.2,0,0,0,26.431,15.08Z" fill="#67d7ff"/>
</svg>
