<svg xmlns="http://www.w3.org/2000/svg" width="17.63" height="17.63" viewBox="0 0 17.63 17.63">
  <path id="Icon_material-local-grocery-store" data-name="Icon material-local-grocery-store" d="M6.789,17.1a1.763,1.763,0,1,0,1.763,1.763A1.761,1.761,0,0,0,6.789,17.1ZM1.5,3V4.763H3.263l3.173,6.691-1.19,2.16a1.7,1.7,0,0,0-.22.846,1.768,1.768,0,0,0,1.763,1.763H17.367V14.459H7.159a.218.218,0,0,1-.22-.22l.026-.106L7.759,12.7h6.567a1.755,1.755,0,0,0,1.543-.908l3.156-5.721a.861.861,0,0,0,.106-.423.884.884,0,0,0-.881-.881H5.211L4.383,3ZM15.6,17.1a1.763,1.763,0,1,0,1.763,1.763A1.761,1.761,0,0,0,15.6,17.1Z" transform="translate(-1.5 -3)" fill="#fff"/>
</svg>
