<svg xmlns="http://www.w3.org/2000/svg" width="22.5" height="22.5" viewBox="0 0 22.5 22.5">
  <path id="Icon_material-local-grocery-store" data-name="Icon material-local-grocery-store" d="M8.25,21a2.25,2.25,0,1,0,2.25,2.25A2.247,2.247,0,0,0,8.25,21ZM1.5,3V5.25H3.75L7.8,13.789,6.281,16.545A2.175,2.175,0,0,0,6,17.625a2.257,2.257,0,0,0,2.25,2.25h13.5v-2.25H8.722a.279.279,0,0,1-.281-.281l.034-.135,1.012-1.834h8.381a2.239,2.239,0,0,0,1.969-1.159l4.027-7.3A1.1,1.1,0,0,0,24,6.375,1.128,1.128,0,0,0,22.875,5.25H6.236L5.179,3Zm18,18a2.25,2.25,0,1,0,2.25,2.25A2.247,2.247,0,0,0,19.5,21Z" transform="translate(-1.5 -3)" fill="#b2191b"/>
</svg>
